# xmcd
#
# Track frame offsets:
#	150
#	15332
#	37827
#	53360
#	66747
#	87235
#	99050
#	110450
#	125495
#	144165
#	160460
#	176192
#	194552
#	208122
#	225657
#	247515
#	272379
#	292289
#
# Disc length: 4174 seconds
#
# Revision: 1
# Processed by: cddbd v1.5.1PL2 Copyright (c) Steve Scherf et al.
# Submitted via: audiograbber 1.83.01
#
DISCID=f3104c12
DTITLE=Eric Clapton - 461 Ocean Boulevard (Deluxe) - Disc2
DYEAR=2005
DGENRE=Rock
TTITLE0=When You Got A Good Friend
TTITLE1=Little Queen Of Spades
TTITLE2=They're Red Hot
TTITLE3=Me And The Devil Blues
TTITLE4=Traveling Riverside Blues
TTITLE5=Last Fair Deal Goin' Down
TTITLE6=Stop Breakin' Down Blues
TTITLE7=Milk Cow's Calf Blues
TTITLE8=Kind Hearted Woman Blues
TTITLE9=Come On In My Kitchen
TTITLE10=If I Had Possession Over Judgement Day
TTITLE11=Love In Vain
TTITLE12=32-20 Blues 32-20
TTITLE13=Hell Hound On My Trail
TTITLE14=Don't Let Me Be Lonely Tonight
TTITLE15=Wonderful Tonight
TTITLE16=Ridin' With The King (With B.B.King)
TTITLE17=Tears In Heaven
EXTD=
EXTT0=
EXTT1=
EXTT2=
EXTT3=
EXTT4=
EXTT5=
EXTT6=
EXTT7=
EXTT8=
EXTT9=
EXTT10=
EXTT11=
EXTT12=
EXTT13=
EXTT14=
EXTT15=
EXTT16=
EXTT17=
PLAYORDER=
